<?xml version="1.0" encoding="utf-8" ?>
<svg baseProfile="full" height="2500mm" version="1.1" width="1200" xmlns="http://www.w3.org/2000/svg" xmlns:ev="http://www.w3.org/2001/xml-events" xmlns:xlink="http://www.w3.org/1999/xlink"><defs /><text fill="black" font-size="20" x="100" y="150">Fruits</text><rect fill="none" height="100" stroke="black" width="150" x="100" y="200" /><text fill="black" font-size="20" x="145.0" y="240.0">apple</text><line stroke="black" stroke-width="2" x1="145.0" x2="205.0" y1="262.0" y2="262.0" /><rect fill="none" height="100" stroke="black" width="150" x="250" y="200" /><text fill="black" font-size="20" x="295.0" y="240.0">apple</text><line stroke="black" stroke-width="2" x1="295.0" x2="355.0" y1="262.0" y2="262.0" /><rect fill="none" height="100" stroke="black" width="150" x="400" y="200" /><text fill="black" font-size="20" x="439.0" y="240.0">grapes</text><rect fill="none" height="100" stroke="black" width="150" x="550" y="200" /><text fill="black" font-size="20" x="589.0" y="240.0">orange</text><rect fill="none" height="100" stroke="black" width="160.0" x="700" y="200" /><text fill="black" font-size="20" x="720.0" y="240.0">watermelon</text><line stroke="black" stroke-width="2" x1="720.0" x2="840.0" y1="262.0" y2="262.0" /><rect fill="none" height="100" stroke="black" width="150" x="860.0" y="200" /><text fill="black" font-size="20" x="905.0" y="240.0">apple</text><line stroke="black" stroke-width="2" x1="905.0" x2="965.0" y1="262.0" y2="262.0" /><text fill="black" font-size="20" x="100" y="400">Vegetables</text><rect fill="none" height="100" stroke="black" width="150" x="100" y="450" /><text fill="black" font-size="20" x="145.0" y="490.0">apple</text><line stroke="black" stroke-width="2" x1="145.0" x2="205.0" y1="512.0" y2="512.0" /><rect fill="none" height="100" stroke="black" width="150" x="250" y="450" /><text fill="black" font-size="20" x="289.0" y="490.0">potato</text><circle cx="289.0" cy="512.0" fill="black" r="0.5" /><circle cx="291.0" cy="512.0" fill="black" r="0.5" /><circle cx="293.0" cy="512.0" fill="black" r="0.5" /><circle cx="295.0" cy="512.0" fill="black" r="0.5" /><circle cx="297.0" cy="512.0" fill="black" r="0.5" /><circle cx="299.0" cy="512.0" fill="black" r="0.5" /><circle cx="301.0" cy="512.0" fill="black" r="0.5" /><circle cx="303.0" cy="512.0" fill="black" r="0.5" /><circle cx="305.0" cy="512.0" fill="black" r="0.5" /><circle cx="307.0" cy="512.0" fill="black" r="0.5" /><circle cx="309.0" cy="512.0" fill="black" r="0.5" /><circle cx="311.0" cy="512.0" fill="black" r="0.5" /><circle cx="313.0" cy="512.0" fill="black" r="0.5" /><circle cx="315.0" cy="512.0" fill="black" r="0.5" /><circle cx="317.0" cy="512.0" fill="black" r="0.5" /><circle cx="319.0" cy="512.0" fill="black" r="0.5" /><circle cx="321.0" cy="512.0" fill="black" r="0.5" /><circle cx="323.0" cy="512.0" fill="black" r="0.5" /><circle cx="325.0" cy="512.0" fill="black" r="0.5" /><circle cx="327.0" cy="512.0" fill="black" r="0.5" /><circle cx="329.0" cy="512.0" fill="black" r="0.5" /><circle cx="331.0" cy="512.0" fill="black" r="0.5" /><circle cx="333.0" cy="512.0" fill="black" r="0.5" /><circle cx="335.0" cy="512.0" fill="black" r="0.5" /><circle cx="337.0" cy="512.0" fill="black" r="0.5" /><circle cx="339.0" cy="512.0" fill="black" r="0.5" /><circle cx="341.0" cy="512.0" fill="black" r="0.5" /><circle cx="343.0" cy="512.0" fill="black" r="0.5" /><circle cx="345.0" cy="512.0" fill="black" r="0.5" /><circle cx="347.0" cy="512.0" fill="black" r="0.5" /><circle cx="349.0" cy="512.0" fill="black" r="0.5" /><circle cx="351.0" cy="512.0" fill="black" r="0.5" /><circle cx="353.0" cy="512.0" fill="black" r="0.5" /><circle cx="355.0" cy="512.0" fill="black" r="0.5" /><circle cx="357.0" cy="512.0" fill="black" r="0.5" /><circle cx="359.0" cy="512.0" fill="black" r="0.5" /><rect fill="none" height="100" stroke="black" width="150" x="400" y="450" /><text fill="black" font-size="20" x="439.0" y="490.0">tomato</text><rect fill="none" height="100" stroke="black" width="150" x="550" y="450" /><text fill="black" font-size="20" x="577.0" y="490.0">cucumber</text><line stroke="black" stroke-width="2" x1="577.0" x2="673.0" y1="512.0" y2="512.0" /><rect fill="none" height="100" stroke="black" width="150" x="700" y="450" /><text fill="black" font-size="20" x="745.0" y="490.0">onion</text><circle cx="745.0" cy="512.0" fill="black" r="0.5" /><circle cx="747.0" cy="512.0" fill="black" r="0.5" /><circle cx="749.0" cy="512.0" fill="black" r="0.5" /><circle cx="751.0" cy="512.0" fill="black" r="0.5" /><circle cx="753.0" cy="512.0" fill="black" r="0.5" /><circle cx="755.0" cy="512.0" fill="black" r="0.5" /><circle cx="757.0" cy="512.0" fill="black" r="0.5" /><circle cx="759.0" cy="512.0" fill="black" r="0.5" /><circle cx="761.0" cy="512.0" fill="black" r="0.5" /><circle cx="763.0" cy="512.0" fill="black" r="0.5" /><circle cx="765.0" cy="512.0" fill="black" r="0.5" /><circle cx="767.0" cy="512.0" fill="black" r="0.5" /><circle cx="769.0" cy="512.0" fill="black" r="0.5" /><circle cx="771.0" cy="512.0" fill="black" r="0.5" /><circle cx="773.0" cy="512.0" fill="black" r="0.5" /><circle cx="775.0" cy="512.0" fill="black" r="0.5" /><circle cx="777.0" cy="512.0" fill="black" r="0.5" /><circle cx="779.0" cy="512.0" fill="black" r="0.5" /><circle cx="781.0" cy="512.0" fill="black" r="0.5" /><circle cx="783.0" cy="512.0" fill="black" r="0.5" /><circle cx="785.0" cy="512.0" fill="black" r="0.5" /><circle cx="787.0" cy="512.0" fill="black" r="0.5" /><circle cx="789.0" cy="512.0" fill="black" r="0.5" /><circle cx="791.0" cy="512.0" fill="black" r="0.5" /><circle cx="793.0" cy="512.0" fill="black" r="0.5" /><circle cx="795.0" cy="512.0" fill="black" r="0.5" /><circle cx="797.0" cy="512.0" fill="black" r="0.5" /><circle cx="799.0" cy="512.0" fill="black" r="0.5" /><circle cx="801.0" cy="512.0" fill="black" r="0.5" /><circle cx="803.0" cy="512.0" fill="black" r="0.5" /><text fill="black" font-size="20" x="100" y="650">Animals</text><rect fill="none" height="100" stroke="black" width="150" x="100" y="700" /><text fill="black" font-size="20" x="157.0" y="740.0">dog</text><line stroke="black" stroke-width="2" x1="157.0" x2="193.0" y1="762.0" y2="762.0" /><rect fill="none" height="100" stroke="black" width="150" x="250" y="700" /><text fill="black" font-size="20" x="307.0" y="740.0">cat</text><circle cx="307.0" cy="762.0" fill="black" r="0.5" /><circle cx="309.0" cy="762.0" fill="black" r="0.5" /><circle cx="311.0" cy="762.0" fill="black" r="0.5" /><circle cx="313.0" cy="762.0" fill="black" r="0.5" /><circle cx="315.0" cy="762.0" fill="black" r="0.5" /><circle cx="317.0" cy="762.0" fill="black" r="0.5" /><circle cx="319.0" cy="762.0" fill="black" r="0.5" /><circle cx="321.0" cy="762.0" fill="black" r="0.5" /><circle cx="323.0" cy="762.0" fill="black" r="0.5" /><circle cx="325.0" cy="762.0" fill="black" r="0.5" /><circle cx="327.0" cy="762.0" fill="black" r="0.5" /><circle cx="329.0" cy="762.0" fill="black" r="0.5" /><circle cx="331.0" cy="762.0" fill="black" r="0.5" /><circle cx="333.0" cy="762.0" fill="black" r="0.5" /><circle cx="335.0" cy="762.0" fill="black" r="0.5" /><circle cx="337.0" cy="762.0" fill="black" r="0.5" /><circle cx="339.0" cy="762.0" fill="black" r="0.5" /><circle cx="341.0" cy="762.0" fill="black" r="0.5" /><rect fill="none" height="100" stroke="black" width="150" x="400" y="700" /><text fill="black" font-size="20" x="445.0" y="740.0">mouse</text><rect fill="none" height="100" stroke="black" width="150" x="550" y="700" /><text fill="black" font-size="20" x="577.0" y="740.0">elephant</text><line stroke="black" stroke-width="2" x1="577.0" x2="673.0" y1="762.0" y2="762.0" /><rect fill="none" height="100" stroke="black" width="150" x="700" y="700" /><text fill="black" font-size="20" x="751.0" y="740.0">lion</text><circle cx="751.0" cy="762.0" fill="black" r="0.5" /><circle cx="753.0" cy="762.0" fill="black" r="0.5" /><circle cx="755.0" cy="762.0" fill="black" r="0.5" /><circle cx="757.0" cy="762.0" fill="black" r="0.5" /><circle cx="759.0" cy="762.0" fill="black" r="0.5" /><circle cx="761.0" cy="762.0" fill="black" r="0.5" /><circle cx="763.0" cy="762.0" fill="black" r="0.5" /><circle cx="765.0" cy="762.0" fill="black" r="0.5" /><circle cx="767.0" cy="762.0" fill="black" r="0.5" /><circle cx="769.0" cy="762.0" fill="black" r="0.5" /><circle cx="771.0" cy="762.0" fill="black" r="0.5" /><circle cx="773.0" cy="762.0" fill="black" r="0.5" /><circle cx="775.0" cy="762.0" fill="black" r="0.5" /><circle cx="777.0" cy="762.0" fill="black" r="0.5" /><circle cx="779.0" cy="762.0" fill="black" r="0.5" /><circle cx="781.0" cy="762.0" fill="black" r="0.5" /><circle cx="783.0" cy="762.0" fill="black" r="0.5" /><circle cx="785.0" cy="762.0" fill="black" r="0.5" /><circle cx="787.0" cy="762.0" fill="black" r="0.5" /><circle cx="789.0" cy="762.0" fill="black" r="0.5" /><circle cx="791.0" cy="762.0" fill="black" r="0.5" /><circle cx="793.0" cy="762.0" fill="black" r="0.5" /><circle cx="795.0" cy="762.0" fill="black" r="0.5" /><circle cx="797.0" cy="762.0" fill="black" r="0.5" /></svg>